<svg xmlns="http://www.w3.org/2000/svg" viewBox="0 0 128 128" role="img" aria-labelledby="title desc">
  <title id="title">AA anime profile avatar</title>
  <desc id="desc">Anime-style profile illustration for the GroundFlow operator account.</desc>
  <defs>
    <linearGradient id="bg" x1="15" y1="9" x2="114" y2="121" gradientUnits="userSpaceOnUse">
      <stop stop-color="#67e8f9"/>
      <stop offset=".48" stop-color="#34d399"/>
      <stop offset="1" stop-color="#a78bfa"/>
    </linearGradient>
    <linearGradient id="hair" x1="38" y1="22" x2="93" y2="99" gradientUnits="userSpaceOnUse">
      <stop stop-color="#14213d"/>
      <stop offset=".58" stop-color="#1f2a54"/>
      <stop offset="1" stop-color="#0f172a"/>
    </linearGradient>
    <linearGradient id="skin" x1="44" y1="45" x2="83" y2="93" gradientUnits="userSpaceOnUse">
      <stop stop-color="#ffe0ca"/>
      <stop offset="1" stop-color="#f5b99a"/>
    </linearGradient>
    <filter id="shadow" x="-20%" y="-20%" width="140%" height="140%">
      <feDropShadow dx="0" dy="10" stdDeviation="8" flood-color="#020617" flood-opacity=".35"/>
    </filter>
  </defs>
  <rect width="128" height="128" rx="32" fill="#07111f"/>
  <circle cx="64" cy="64" r="55" fill="url(#bg)" opacity=".92"/>
  <path d="M25 94c8-17 21-27 39-27s31 10 39 27c-9 12-22 20-39 20S34 106 25 94z" fill="#10233f" filter="url(#shadow)"/>
  <path d="M43 58c0-20 11-32 23-32 13 0 22 12 22 32 0 19-9 34-22 34S43 77 43 58z" fill="url(#skin)"/>
  <path d="M38 61c2-24 13-39 31-39 16 0 28 13 31 35-12-1-20-7-25-17-7 10-19 17-37 21z" fill="url(#hair)"/>
  <path d="M40 61c3-20 12-31 27-34-2 11-9 23-27 34z" fill="#26345f" opacity=".9"/>
  <path d="M86 40c7 6 11 14 12 25-10-4-17-11-22-23 4 1 7 1 10-2z" fill="#0f172a" opacity=".88"/>
  <path d="M47 64c2-4 6-6 10-3" fill="none" stroke="#0f172a" stroke-width="4" stroke-linecap="round"/>
  <path d="M75 61c4-3 8-1 10 3" fill="none" stroke="#0f172a" stroke-width="4" stroke-linecap="round"/>
  <path d="M56 78c5 5 13 5 18 0" fill="none" stroke="#c96f67" stroke-width="3" stroke-linecap="round"/>
  <circle cx="48" cy="70" r="5" fill="#fb7185" opacity=".22"/>
  <circle cx="82" cy="70" r="5" fill="#fb7185" opacity=".22"/>
  <path d="M39 96c6-11 14-16 25-16s19 5 25 16c-6 6-14 10-25 10s-19-4-25-10z" fill="#22d3ee" opacity=".18"/>
  <rect x="77" y="82" width="35" height="27" rx="12" fill="#06111f" opacity=".84"/>
  <text x="94.5" y="100.5" text-anchor="middle" font-family="Inter, Arial, sans-serif" font-size="14" font-weight="800" fill="#e0f2fe">AA</text>
</svg>
